<?xml version="1.0" encoding="iso-8859-1"?>
<!-- Uploaded to: SVG Repo, www.svgrepo.com, Generator: SVG Repo Mixer Tools -->
<svg height="800px" width="800px" version="1.1" id="Layer_1" xmlns="http://www.w3.org/2000/svg" xmlns:xlink="http://www.w3.org/1999/xlink" 
	 viewBox="0 0 512 512" xml:space="preserve">
<path style="fill:#7DF5A5;" d="M493.714,429.714H18.286C8.186,429.714,0,421.528,0,411.429V100.571
	c0-10.099,8.186-18.286,18.286-18.286h475.429c10.099,0,18.286,8.186,18.286,18.286v310.857
	C512,421.528,503.814,429.714,493.714,429.714z"/>
<path style="fill:#8C50D7;" d="M466.286,329.143H45.714c-5.049,0-9.143-4.094-9.143-9.143V137.143c0-5.049,4.094-9.143,9.143-9.143
	h420.571c5.049,0,9.143,4.094,9.143,9.143V320C475.429,325.049,471.335,329.143,466.286,329.143z"/>
<path style="fill:#FF507D;" d="M466.286,128H45.714c-5.049,0-9.143,4.094-9.143,9.143v64h438.857v-64
	C475.429,132.094,471.335,128,466.286,128z"/>
<path style="fill:#FFFFFF;" d="M374.857,265.143H137.143c-20.198,0-36.571-16.374-36.571-36.571l0,0
	c0-20.198,16.374-36.571,36.571-36.571h237.714c20.198,0,36.571,16.374,36.571,36.571l0,0
	C411.429,248.769,395.055,265.143,374.857,265.143z"/>
<g>
	<path style="fill:#464655;" d="M100.571,228.571c0,20.198,16.374,36.571,36.571,36.571h63.278
		c6.238-10.767,9.865-23.233,9.865-36.571c0-13.338-3.627-25.805-9.865-36.571h-63.278C116.945,192,100.571,208.374,100.571,228.571
		z"/>
	<path style="fill:#464655;" d="M374.857,192H271.52c-4.055,11.454-6.377,23.728-6.377,36.571c0,12.843,2.321,25.118,6.377,36.571
		h103.337c20.199,0,36.571-16.374,36.571-36.571S395.056,192,374.857,192z"/>
</g>
<path style="fill:#64DCA0;" d="M397.893,376.797c-2.881-6.723-9.494-11.082-16.808-11.082h-250.17
	c-7.314,0-13.926,4.359-16.807,11.082l-22.679,52.918h329.143L397.893,376.797z"/>
<g>
	<circle style="fill:#A0FFB4;" cx="146.286" cy="402.286" r="13.714"/>
	<circle style="fill:#A0FFB4;" cx="365.714" cy="402.286" r="13.714"/>
</g>
<g>
	<circle style="fill:#FFFFFF;" cx="137.143" cy="228.571" r="27.429"/>
	<circle style="fill:#FFFFFF;" cx="374.857" cy="228.571" r="27.429"/>
</g>
<path style="fill:#64DCA0;" d="M374.857,274.286H137.143c-25.206,0-45.714-20.509-45.714-45.714s20.509-45.714,45.714-45.714
	h237.714c25.206,0,45.714,20.509,45.714,45.714S400.063,274.286,374.857,274.286z M137.143,201.143
	c-15.125,0-27.429,12.304-27.429,27.429c0,15.125,12.304,27.429,27.429,27.429h237.714c15.125,0,27.429-12.304,27.429-27.429
	c0-15.125-12.304-27.429-27.429-27.429H137.143z"/>
</svg>